
<svg xmlns="http://www.w3.org/2000/svg" version="1.1" xmlns:xlink="http://www.w3.org/1999/xlink" preserveAspectRatio="none" x="0px" y="0px" width="2048px" height="1424px" viewBox="0 0 2048 1424">
<defs>
<linearGradient id="Gradient_1" gradientUnits="userSpaceOnUse" x1="-67.0875" y1="197.91249999999997" x2="165.88750000000002" y2="1099.0875" spreadMethod="pad">
<stop  offset="11.372549019607844%" stop-color="#840D99"/>

<stop  offset="39.6078431372549%" stop-color="#B825AA"/>

<stop  offset="64.70588235294117%" stop-color="#DF36B6"/>

<stop  offset="85.09803921568627%" stop-color="#F641BE"/>

<stop  offset="97.25490196078431%" stop-color="#FF45C1"/>
</linearGradient>

<linearGradient id="Gradient_2" gradientUnits="userSpaceOnUse" x1="733.1" y1="-89.95000000000005" x2="1308.6" y2="1470.3500000000001" spreadMethod="pad">
<stop  offset="0%" stop-color="#2464EC"/>

<stop  offset="100%" stop-color="#3F9AFF"/>
</linearGradient>

<linearGradient id="Gradient_3" gradientUnits="userSpaceOnUse" x1="-59.13750000000002" y1="515.7125000000001" x2="341.63750000000005" y2="1165.6875" spreadMethod="pad">
<stop  offset="0%" stop-color="#FF0C95"/>

<stop  offset="16.07843137254902%" stop-color="#FA3978"/>

<stop  offset="45.490196078431374%" stop-color="#F18745"/>

<stop  offset="70.19607843137256%" stop-color="#EBC020"/>

<stop  offset="88.23529411764706%" stop-color="#E7E409"/>

<stop  offset="97.6470588235294%" stop-color="#E5F100"/>
</linearGradient>

<linearGradient id="Gradient_4" gradientUnits="userSpaceOnUse" x1="1947.5249999999999" y1="524.4375" x2="1725.675" y2="-23.73750000000004" spreadMethod="pad">
<stop  offset="11.372549019607844%" stop-color="#840D99"/>

<stop  offset="39.6078431372549%" stop-color="#B825AA"/>

<stop  offset="64.70588235294117%" stop-color="#DF36B6"/>

<stop  offset="85.09803921568627%" stop-color="#F641BE"/>

<stop  offset="97.25490196078431%" stop-color="#FF45C1"/>
</linearGradient>

<linearGradient id="Gradient_5" gradientUnits="userSpaceOnUse" x1="1844.8999999999999" y1="1937.1375" x2="1670.8" y2="300.76250000000005" spreadMethod="pad">
<stop  offset="0%" stop-color="#00C37E"/>

<stop  offset="13.333333333333334%" stop-color="#31CD63"/>

<stop  offset="29.80392156862745%" stop-color="#67D845"/>

<stop  offset="46.27450980392157%" stop-color="#94E12D"/>

<stop  offset="61.568627450980394%" stop-color="#B7E819"/>

<stop  offset="76.07843137254902%" stop-color="#D0ED0B"/>

<stop  offset="89.41176470588235%" stop-color="#E0F003"/>

<stop  offset="100%" stop-color="#E5F100"/>
</linearGradient>

<g id="Symbol_9_0_Layer0_0_FILL">
<path fill="url(#Gradient_1)" stroke="none" d="
M 0.85 4.65
L 0.15 4.65 0 4.7 0 1181.7
Q 0.0748046875 1181.664453125 0.15 1181.65 0.2021484375 1181.6251953125 0.25 1181.6 92.5298828125 1137.57890625 150.6 1049.5 200.3 974 222.6 870.05 241.15 783.55 239.05 687.15 237.25 607.2 222.75 544.75 208 481.45 173.1 425.85 164.5 412.2 142.75 381.1 123.2 353.25 113 336.15 80.35 281 68.55 215.05 53.5 130.55 65.8 2.65
L 0.85 4.65 Z"/>

<path fill="url(#Gradient_2)" stroke="none" d="
M 0.85 4.65
L 0.85 4.05 12.55 0.05 0.15 0.05 0.15 4.65 0.85 4.65
M 2048.65 1.95
L 2042.55 1.95 2042.55 2 2046.05 2 2046.05 1421.35 1838.25 1421.35
Q 1837.9021484375 1422.3271484375 1837.55 1423.3
L 1715.7 1423.3
Q 1722.95 1293.65 1747.95 1079.45 1783.8 447.9 1777.1 276.55 1770.35 105.2 1733.6 1.95
L 1255.9 1.95 1255.95 0 192.4 0.05
Q 321.3953125 447.39453125 220.2 1421.35
L 0.2 1421.35 0.25 1181.6
Q 0.2021484375 1181.6251953125 0.15 1181.65
L 0.15 1424.45 1308.1 1424.45 1308.1 1423.3 2048.65 1423.35 2048.65 1.95 Z"/>

<path fill="url(#Gradient_3)" stroke="none" d="
M 192.4 0.05
L 192.4 0 12.7 0 12.55 0.05 0.85 4.05 0.85 4.65 65.8 2.65
Q 53.5 130.55 68.55 215.05 80.35 281 113 336.15 123.2 353.25 142.75 381.1 164.5 412.2 173.1 425.85 208 481.45 222.75 544.75 237.25 607.2 239.05 687.15 241.15 783.55 222.6 870.05 200.3 974 150.6 1049.5 92.5298828125 1137.57890625 0.25 1181.6
L 0.2 1421.35 220.2 1421.35
Q 321.3953125 447.39453125 192.4 0.05 Z"/>

<path fill="url(#Gradient_4)" stroke="none" d="
M 1813.3 196.8
Q 1801.1 160.4 1794.65 136.2 1774.55 60.45 1780.05 1.95
L 1733.6 1.95
Q 1770.35 105.2 1777.1 276.55 1783.8 447.9 1747.95 1079.45 1722.95 1293.65 1715.7 1423.3
L 1837.55 1423.3
Q 1837.9021484375 1422.3271484375 1838.25 1421.35
L 1812.85 1421.35
Q 1812.75 1417.75 1812.5 1413.45 1822.75 1387.45 1805.9 1385.05 1789.05 1382.65 1790.85 1259.65 1792.65 1136.65 1813.35 1093.75 1834.1 1050.85 1834.75 978.7 1807.6 904.75 1823.2 893.45 1838.75 882.1 1828.4 864.05 1818.05 846 1826.15 826.1 1846.2 854.6 1834.85 830.7 1810.15 779.85 1811 695.85 1811.6 636.5 1826.95 534.5 1841.65 446.15 1843.15 386.55 1844.95 311.6 1828.55 244.6 1825.65 233.9 1813.3 196.8
M 2042.55 2
L 2042.55 1.95 2038.45 1.95 2042.55 2 Z"/>

<path fill="url(#Gradient_5)" stroke="none" d="
M 2046.05 2
L 2042.55 2 2038.45 1.95 1780.05 1.95
Q 1774.55 60.45 1794.65 136.2 1801.1 160.4 1813.3 196.8 1825.65 233.9 1828.55 244.6 1844.95 311.6 1843.15 386.55 1841.65 446.15 1826.95 534.5 1811.6 636.5 1811 695.85 1810.15 779.85 1834.85 830.7 1846.2 854.6 1826.15 826.1 1818.05 846 1828.4 864.05 1838.75 882.1 1823.2 893.45 1807.6 904.75 1834.75 978.7 1834.1 1050.85 1813.35 1093.75 1792.65 1136.65 1790.85 1259.65 1789.05 1382.65 1805.9 1385.05 1822.75 1387.45 1812.5 1413.45 1812.75 1417.75 1812.85 1421.35
L 1838.25 1421.35 2046.05 1421.35 2046.05 2 Z"/>
</g>
</defs>

<g transform="matrix( 1, 0, 0, 1, 0,0) ">
<g transform="matrix( 1, 0, 0, 1, 0,0) ">
<use xlink:href="#Symbol_9_0_Layer0_0_FILL"/>
</g>
</g>
</svg>
