<?xml version="1.0" encoding="UTF-8" standalone="no"?>
<svg
   xmlns:dc="http://purl.org/dc/elements/1.1/"
   xmlns:cc="http://creativecommons.org/ns#"
   xmlns:rdf="http://www.w3.org/1999/02/22-rdf-syntax-ns#"
   xmlns:svg="http://www.w3.org/2000/svg"
   xmlns="http://www.w3.org/2000/svg"
   xmlns:xlink="http://www.w3.org/1999/xlink"
   xmlns:sodipodi="http://sodipodi.sourceforge.net/DTD/sodipodi-0.dtd"
   xmlns:inkscape="http://www.inkscape.org/namespaces/inkscape"
   version="1.1"
   preserveAspectRatio="none"
   x="0px"
   y="0px"
   width="185.71297"
   height="174.61333"
   viewBox="0 0 185.71297 174.61333"
   id="svg39"
   sodipodi:docname="bar_info.svg"
   inkscape:version="0.92.3 (2405546, 2018-03-11)">
  <metadata
     id="metadata43">
    <rdf:RDF>
      <cc:Work
         rdf:about="">
        <dc:format>image/svg+xml</dc:format>
        <dc:type
           rdf:resource="http://purl.org/dc/dcmitype/StillImage" />
        <dc:title></dc:title>
      </cc:Work>
    </rdf:RDF>
  </metadata>
  <sodipodi:namedview
     pagecolor="#ffffff"
     bordercolor="#666666"
     borderopacity="1"
     objecttolerance="10"
     gridtolerance="10"
     guidetolerance="10"
     inkscape:pageopacity="0"
     inkscape:pageshadow="2"
     inkscape:window-width="640"
     inkscape:window-height="480"
     id="namedview41"
     showgrid="false"
     inkscape:zoom="0.55272727"
     inkscape:cx="92.348966"
     inkscape:cy="87.262745"
     inkscape:window-x="0"
     inkscape:window-y="0"
     inkscape:window-maximized="0"
     inkscape:current-layer="svg39"
     fit-margin-top="0"
     fit-margin-left="0"
     fit-margin-right="0"
     fit-margin-bottom="0" />
  <defs
     id="defs25">
    <linearGradient
       id="Gradient_1"
       gradientUnits="userSpaceOnUse"
       x1="139.52499"
       y1="225.55"
       x2="33.275002"
       y2="-102.45"
       spreadMethod="pad">
      <stop
         offset="0%"
         stop-color="#FF0C95"
         id="stop2" />
      <stop
         offset="5.098039215686274%"
         stop-color="#FD1D8A"
         id="stop4" />
      <stop
         offset="24.313725490196077%"
         stop-color="#F65D60"
         id="stop6" />
      <stop
         offset="42.745098039215684%"
         stop-color="#F0923E"
         id="stop8" />
      <stop
         offset="59.6078431372549%"
         stop-color="#EBBB23"
         id="stop10" />
      <stop
         offset="74.90196078431373%"
         stop-color="#E8D910"
         id="stop12" />
      <stop
         offset="88.23529411764706%"
         stop-color="#E6EB04"
         id="stop14" />
      <stop
         offset="97.6470588235294%"
         stop-color="#E5F100"
         id="stop16" />
    </linearGradient>
    <g
       id="Symbol_11_0_Layer0_0_FILL">
      <path
         d="M 184.7,84.2 Q 190.55,42.2 162.65,17.3 132.05,-9.8 79.55,5.55 58.5,11.7 38.2,28.35 16.5,46.25 6.6,67.5 -4.7,91.8 3.35,114 q 9.45,25.55 43.85,44.8 56.95,31.75 97.55,-0.25 16.35,-12.85 27.2,-34.2 Q 181.7,105 184.7,84.2 Z"
         id="path19"
         inkscape:connector-curvature="0"
         style="fill:url(#Gradient_1);stroke:none" />
    </g>
    <g
       id="Symbol_5_0_Layer0_0_FILL">
      <path
         d="M 19.45,-3.9 Q 21.35,-5.8 24,-5.8 V -16.45 H -23.95 V -5.8 q 2.7,0 4.6,1.9 1.85,1.85 1.85,4.55 v 41.7 q 0,2.65 -1.85,4.55 -1.9,1.9 -4.6,1.9 V 59.4 H 24 V 48.8 q -2.65,0 -4.55,-1.9 -1.9,-1.9 -1.9,-4.55 V 0.65 q 0,-2.7 1.9,-4.55 m -7,-50.35 Q 10,-56.7 6.85,-58.05 3.6,-59.4 0.05,-59.4 q -3.6,0 -6.85,1.35 -3.15,1.35 -5.55,3.8 -2.45,2.4 -3.75,5.55 -1.4,3.25 -1.4,6.8 0,3.55 1.4,6.8 1.3,3.15 3.75,5.6 2.4,2.4 5.55,3.75 3.25,1.35 6.85,1.35 3.55,0 6.8,-1.35 3.15,-1.35 5.6,-3.75 2.4,-2.45 3.7,-5.6 1.4,-3.25 1.4,-6.8 0,-3.55 -1.4,-6.8 -1.3,-3.15 -3.7,-5.55 z"
         id="path22"
         inkscape:connector-curvature="0"
         style="fill:#ffffff;stroke:none" />
    </g>
  </defs>
  <g
     transform="translate(-0.00103359,5.8892815e-4)"
     id="g37">
    <g
       id="g29">
      <use
         xlink:href="#Symbol_11_0_Layer0_0_FILL"
         id="use27"
         x="0"
         y="0"
         width="100%"
         height="100%" />
    </g>
    <g
       transform="matrix(0.7895813,0,0,0.7895813,101.15,83.45)"
       id="g35">
      <g
         id="g33">
        <use
           xlink:href="#Symbol_5_0_Layer0_0_FILL"
           id="use31"
           x="0"
           y="0"
           width="100%"
           height="100%" />
      </g>
    </g>
  </g>
</svg>
