
<svg xmlns="http://www.w3.org/2000/svg" version="1.1" xmlns:xlink="http://www.w3.org/1999/xlink" preserveAspectRatio="none" x="0px" y="0px" width="131px" height="123px" viewBox="0 0 131 123">
<defs>
<linearGradient id="Gradient_1" gradientUnits="userSpaceOnUse" x1="-0.025000000000005684" y1="61.7" x2="131.225" y2="61.7" spreadMethod="pad">
<stop  offset="0%" stop-color="#FFFF00"/>

<stop  offset="100%" stop-color="#FF0000"/>
</linearGradient>

<g id="Symbol_16_0_Layer0_0_FILL">
<path fill="url(#Gradient_1)" stroke="none" d="
M 121.5 87.9
Q 128.4 74.2 130.55 59.5 134.65 29.85 114.95 12.25 93.3 -6.95 56.2 3.9 41.35 8.25 27 20.05 11.65 32.7 4.65 47.7 -3.35 64.9 2.35 80.55 9.05 98.65 33.35 112.25 73.6 134.7 102.3 112.05 113.85 103 121.5 87.9 Z"/>
</g>

<g id="Symbol_7_0_Layer0_0_FILL">
<path fill="#FF0000" stroke="none" d="
M -16.3 -29.9
L -34.8 -29.9 -34.8 21.35 -16.3 21.35 -16.3 -29.9 Z"/>

<path fill="#008000" stroke="none" d="
M 4.3 21.35
L 4.3 -15 -14.15 -15 -14.15 21.35 4.3 21.35 Z"/>

<path fill="#FFFFFF" stroke="none" d="
M 46.5 32.95
L 46.5 27.6 -41.05 27.6 -41.05 -32.9 -46.4 -32.9 -46.4 27.6 -46.5 27.6 -46.5 32.95 46.5 32.95 Z"/>

<path fill="#FBB940" stroke="none" d="
M 45.65 -1.85
L 27.2 -1.85 27.2 21.4 45.65 21.4 45.65 -1.85 Z"/>

<path fill="#5FF1FF" stroke="none" d="
M 24.95 -25.1
L 6.45 -25.1 6.45 21.4 24.95 21.4 24.95 -25.1 Z"/>
</g>
</defs>

<g transform="matrix( 1, 0, 0, 1, 0,0) ">
<g transform="matrix( 1, 0, 0, 1, 0,0) ">
<use xlink:href="#Symbol_16_0_Layer0_0_FILL"/>
</g>

<g transform="matrix( 0.855621337890625, 0, 0, 0.855621337890625, 68.5,57.95) ">
<g transform="matrix( 1, 0, 0, 1, 0,0) ">
<use xlink:href="#Symbol_7_0_Layer0_0_FILL"/>
</g>
</g>
</g>
</svg>
