<?xml version="1.0" encoding="UTF-8" standalone="no"?>
<svg
   xmlns:dc="http://purl.org/dc/elements/1.1/"
   xmlns:cc="http://creativecommons.org/ns#"
   xmlns:rdf="http://www.w3.org/1999/02/22-rdf-syntax-ns#"
   xmlns:svg="http://www.w3.org/2000/svg"
   xmlns="http://www.w3.org/2000/svg"
   xmlns:xlink="http://www.w3.org/1999/xlink"
   xmlns:sodipodi="http://sodipodi.sourceforge.net/DTD/sodipodi-0.dtd"
   xmlns:inkscape="http://www.inkscape.org/namespaces/inkscape"
   version="1.1"
   preserveAspectRatio="none"
   x="0px"
   y="0px"
   width="131px"
   height="123px"
   viewBox="0 0 131 123"
   id="svg35"
   sodipodi:docname="barPie.svg"
   inkscape:version="0.92.3 (2405546, 2018-03-11)">
  <metadata
     id="metadata39">
    <rdf:RDF>
      <cc:Work
         rdf:about="">
        <dc:format>image/svg+xml</dc:format>
        <dc:type
           rdf:resource="http://purl.org/dc/dcmitype/StillImage" />
        <dc:title></dc:title>
      </cc:Work>
    </rdf:RDF>
  </metadata>
  <sodipodi:namedview
     pagecolor="#ffffff"
     bordercolor="#666666"
     borderopacity="1"
     objecttolerance="10"
     gridtolerance="10"
     guidetolerance="10"
     inkscape:pageopacity="0"
     inkscape:pageshadow="2"
     inkscape:window-width="1366"
     inkscape:window-height="705"
     id="namedview37"
     showgrid="false"
     inkscape:zoom="1.9186992"
     inkscape:cx="65.5"
     inkscape:cy="61.5"
     inkscape:window-x="-8"
     inkscape:window-y="-8"
     inkscape:window-maximized="1"
     inkscape:current-layer="svg35" />
  <defs
     id="defs21">
    <linearGradient
       id="Gradient_1"
       gradientUnits="userSpaceOnUse"
       x1="-0.025000000000005684"
       y1="61.7"
       x2="131.225"
       y2="61.7"
       spreadMethod="pad">
      <stop
         offset="0%"
         stop-color="#FFFF00"
         id="stop2" />
      <stop
         offset="100%"
         stop-color="#FF0000"
         id="stop4" />
    </linearGradient>
    <g
       id="Symbol_16_0_Layer0_0_FILL">
      <path
         fill="url(#Gradient_1)"
         stroke="none"
         d=" M 121.5 87.9 Q 128.4 74.2 130.55 59.5 134.65 29.85 114.95 12.25 93.3 -6.95 56.2 3.9 41.35 8.25 27 20.05 11.65 32.7 4.65 47.7 -3.35 64.9 2.35 80.55 9.05 98.65 33.35 112.25 73.6 134.7 102.3 112.05 113.85 103 121.5 87.9 Z"
         id="path7" />
    </g>
    <g
       id="Symbol_7_0_Layer0_0_FILL">
      <path
         fill="#FF0000"
         stroke="none"
         d=" M -16.3 -29.9 L -34.8 -29.9 -34.8 21.35 -16.3 21.35 -16.3 -29.9 Z"
         id="path10" />
      <path
         fill="#008000"
         stroke="none"
         d=" M 4.3 21.35 L 4.3 -15 -14.15 -15 -14.15 21.35 4.3 21.35 Z"
         id="path12" />
      <path
         fill="#FFFFFF"
         stroke="none"
         d=" M 46.5 32.95 L 46.5 27.6 -41.05 27.6 -41.05 -32.9 -46.4 -32.9 -46.4 27.6 -46.5 27.6 -46.5 32.95 46.5 32.95 Z"
         id="path14" />
      <path
         fill="#FBB940"
         stroke="none"
         d=" M 45.65 -1.85 L 27.2 -1.85 27.2 21.4 45.65 21.4 45.65 -1.85 Z"
         id="path16" />
      <path
         fill="#5FF1FF"
         stroke="none"
         d=" M 24.95 -25.1 L 6.45 -25.1 6.45 21.4 24.95 21.4 24.95 -25.1 Z"
         id="path18" />
    </g>
  </defs>
  <g
     id="g25">
    <use
       height="100%"
       width="100%"
       y="0"
       x="0"
       id="use23"
       xlink:href="#Symbol_16_0_Layer0_0_FILL" />
  </g>
  <circle
     style="fill:#ffffff;fill-opacity:1;stroke:none;stroke-width:18.89763832;stroke-linecap:round;stroke-linejoin:round;stroke-miterlimit:4;stroke-dasharray:none;stroke-dashoffset:0;stroke-opacity:1"
     id="path878"
     cx="64.887711"
     cy="63.845341"
     r="37.264832" />
  <g
     id="g862"
     transform="matrix(0.38684134,0,0,0.38684134,34.294522,35.731733)">
    <path
       style="fill:#fe9e9e"
       d="m 69.991526,158.07077 c 0.6875,-0.27741 1.8125,-0.27741 2.5,0 0.6875,0.27741 0.125,0.50439 -1.25,0.50439 -1.375,0 -1.9375,-0.22698 -1.25,-0.50439 z m 17.51903,-0.0307 c 0.97297,-0.25354 2.32297,-0.23687 3,0.0371 0.67703,0.27393 -0.11903,0.48137 -1.76903,0.46099 -1.65,-0.0204 -2.20394,-0.2445 -1.23097,-0.49804 z m 8.54347,-0.99012 c 0.72187,-0.28887 1.58437,-0.25335 1.91667,0.0789 0.33229,0.33229 -0.25834,0.56864 -1.3125,0.52522 -1.16495,-0.048 -1.4019,-0.28494 -0.60417,-0.60416 z m 35.187504,-14.69446 c 0,-0.20765 0.7875,-0.99515 1.75,-1.75 1.58606,-1.24387 1.62143,-1.2085 0.37756,0.37756 -1.30637,1.66575 -2.12756,2.19548 -2.12756,1.37244 z m 10,-9.12244 c 3.54322,-3.575 6.66722,-6.5 6.94222,-6.5 0.275,0 -2.399,2.925 -5.94222,6.5 -3.54322,3.575 -6.66722,6.5 -6.94222,6.5 -0.275,0 2.399,-2.925 5.94222,-6.5 z m 25.15789,-48.499999 c 0,-1.375 0.22698,-1.9375 0.50439,-1.25 0.27741,0.6875 0.27741,1.8125 0,2.5 -0.27741,0.6875 -0.50439,0.125 -0.50439,-1.25 z m 1.19707,-13.5 c -0.003,-4.95 0.16605,-7.101078 0.37577,-4.780173 0.20972,2.320905 0.21222,6.370903 0.006,9.000003 -0.20713,2.62909 -0.37873,0.73017 -0.38177,-4.21983 z m -1.27601,-14.083333 c 0.048,-1.164943 0.28494,-1.4019 0.60416,-0.604167 0.28887,0.721875 0.25335,1.584375 -0.0789,1.916667 -0.3323,0.332291 -0.56864,-0.258334 -0.52522,-1.3125 z M 150.11397,18.983051 c -1.24387,-1.586056 -1.2085,-1.621426 0.37756,-0.377555 1.66575,1.306369 2.19548,2.127555 1.37244,2.127555 -0.20765,0 -0.99515,-0.7875 -1.75,-1.75 z m -3.94813,-5 -2.42431,-2.75 2.75,2.424314 c 1.5125,1.333373 2.75,2.570873 2.75,2.75 0,0.784274 -0.8098,0.145975 -3.07569,-2.424314 z m -9.51932,-9.5 -1.90499,-2.25 2.25,1.904988 c 2.11444,1.790218 2.70524,2.595012 1.90499,2.595012 -0.18976,0 -1.20226,-1.0125 -2.25,-2.25 z m -20.40499,-12.75 c -0.825,-0.533156 -1.05,-0.969374 -0.5,-0.969374 0.55,0 1.675,0.436218 2.5,0.969374 0.825,0.533156 1.05,0.969374 0.5,0.969374 -0.55,0 -1.675,-0.436218 -2.5,-0.969374 z m -19.187504,-6.683114 c 0.72187,-0.288871 1.58437,-0.253344 1.91667,0.07895 0.33229,0.332292 -0.25834,0.568641 -1.3125,0.52522 -1.16495,-0.04798 -1.4019,-0.284941 -0.60417,-0.604167 z m -7.0625,-0.979167 c 0.6875,-0.277412 1.8125,-0.277412 2.5,0 0.6875,0.277413 0.125,0.504386 -1.25,0.504386 -1.375,0 -1.9375,-0.226973 -1.25,-0.504386 z"
       id="path870"
       inkscape:connector-curvature="0" />
    <path
       style="fill:#44a144"
       d="m 18.241526,133.23305 c -2.429029,-2.475 -4.191416,-4.5 -3.916416,-4.5 0.275,0 2.487387,2.025 4.916416,4.5 2.429029,2.475 4.191416,4.5 3.916416,4.5 -0.275,0 -2.487387,-2.025 -4.916416,-4.5 z m -8.127555,-9.25 c -1.243871,-1.58606 -1.208501,-1.62143 0.377555,-0.37756 0.9625,0.75485 1.75,1.54235 1.75,1.75 0,0.82304 -0.821186,0.29331 -2.127555,-1.37244 z M -6.6005793,83.733051 c 0,-1.375 0.2269737,-1.9375 0.504386,-1.25 0.2774123,0.6875 0.2774123,1.8125 0,2.5 -0.2774123,0.6875 -0.504386,0.125 -0.504386,-1.25 z m -0.8582305,-12 c 0,-3.025 0.1874656,-4.2625 0.4165902,-2.75 0.2291247,1.5125 0.2291247,3.9875 0,5.5 -0.2291246,1.5125 -0.4165902,0.275 -0.4165902,-2.75 z M 9.241526,19.355496 c 0,-0.207656 0.7875,-0.995156 1.75,-1.75 1.586056,-1.243871 1.621426,-1.208501 0.377555,0.377555 -1.306369,1.665748 -2.127555,2.195479 -2.127555,1.372445 z m 9,-10.122445 c 2.987424,-3.025 5.65668,-5.5 5.93168,-5.5 0.275,0 -1.944256,2.475 -4.93168,5.5 -2.987424,3.025 -5.65668,5.5 -5.93168,5.5 -0.275,0 1.944256,-2.475 4.93168,-5.5 z m 45.8125,-24.183114 c 0.721875,-0.288871 1.584375,-0.253344 1.916667,0.07895 0.332291,0.332292 -0.258334,0.568641 -1.3125,0.52522 -1.164943,-0.04798 -1.4019,-0.284941 -0.604167,-0.604167 z m 6.456532,-1.009877 c 0.972967,-0.253543 2.322967,-0.236869 3,0.03705 0.677032,0.273927 -0.119032,0.481372 -1.769032,0.460992 -1.65,-0.02038 -2.203936,-0.244498 -1.230968,-0.498042 z"
       id="path868"
       inkscape:connector-curvature="0" />
    <path
       style="fill:#fe0000"
       d="M 67.741526,157.68958 C 55.628607,155.81019 38.851793,149.34294 32.478443,144.09612 L 30.215361,142.23305 55.728443,107.09046 81.241526,71.94787 V 27.71125 -16.52537 l 6.7532,0.665444 c 39.541494,3.896318 71.581954,33.399192 78.325224,72.121903 2.00322,11.503358 0.66905,30.087824 -2.9772,41.471074 -3.93931,12.298189 -10.43737,23.242369 -19.40593,32.683929 -16.78666,17.67199 -36.1631,26.62845 -59.994231,27.73141 -5.610585,0.25967 -12.901063,0.0532 -16.201063,-0.45881 z"
       id="path866"
       inkscape:connector-curvature="0" />
    <path
       style="fill:#007f00"
       d="M 20.768429,134.60934 C 12.376432,126.75903 6.314042,118.32622 1.33444,107.57657 -3.8747144,96.331381 -5.7957336,88.342471 -6.4624506,75.151771 -7.7626693,49.427544 0.45068,28.523897 19.241526,9.733051 29.650174,-0.675597 38.817498,-6.573574 51.435266,-10.97942 c 6.07187,-2.120163 21.831054,-5.253725 26.55626,-5.280457 0.980844,-0.0055 1.25,9.306926 1.25,43.248444 V 70.244082 L 54.16823,104.73857 c -13.790313,18.97196 -25.435855,34.86752 -25.878982,35.32346 -0.443127,0.45594 -3.827495,-1.99777 -7.520819,-5.45269 z"
       id="path864"
       inkscape:connector-curvature="0" />
  </g>
</svg>
