
<svg xmlns="http://www.w3.org/2000/svg" version="1.1" xmlns:xlink="http://www.w3.org/1999/xlink" preserveAspectRatio="none" x="0px" y="0px" width="128px" height="130px" viewBox="0 0 128 130">
<defs>
<linearGradient id="Gradient_1" gradientUnits="userSpaceOnUse" x1="42.7" y1="137.75" x2="88.10000000000001" y2="-25.150000000000006" spreadMethod="pad">
<stop  offset="0%" stop-color="#FF0C95"/>

<stop  offset="16.07843137254902%" stop-color="#FA3978"/>

<stop  offset="45.490196078431374%" stop-color="#F18745"/>

<stop  offset="70.19607843137256%" stop-color="#EBC020"/>

<stop  offset="88.23529411764706%" stop-color="#E7E409"/>

<stop  offset="97.6470588235294%" stop-color="#E5F100"/>
</linearGradient>

<g id="Symbol_9_0_Layer0_0_FILL">
<path fill="url(#Gradient_1)" stroke="none" d="
M 114.65 40.15
Q 102.2 23.55 83.25 12.45 63.75 1.05 45.3 0.1 25.1 -1 12.1 11.25 2.2 22.1 0.4 39.05 -1.25 54.5 4.05 71.9 9.2 88.65 19.25 102.4 29.65 116.55 42.05 123 57.7 131.1 74.05 130.35 89.25 129.75 102.2 121.8 114.75 114.2 121.9 101.9 129.15 89.25 128.5 75.15 127.9 57.75 114.65 40.15 Z"/>
</g>

<g id="Symbol_6_0_Layer0_0_FILL">
<path fill="#FFFFFF" stroke="none" d="
M 13.65 -28.25
L 13.65 -37.75 -25.7 -37.75
Q -28.25 -37.75 -30.15 -35.85 -31.95 -33.95 -31.95 -31.3
L -31.95 31.45
Q -31.95 34.1 -30.15 35.95 -28.25 37.75 -25.7 37.75
L 25.6 37.75
Q 28.25 37.75 30.15 35.95 31.95 34.1 31.95 31.45
L 31.95 -19.35 22.55 -19.35
Q 18.95 -19.35 16.3 -22 13.65 -24.65 13.65 -28.25
M 11.4 -4.85
Q 13.5 -4.85 14.9 -3.45 16.35 -2 16.35 0.05 16.35 2.1 14.9 3.5 13.5 5 11.4 5
L 4.8 5 4.8 11.6
Q 4.8 13.65 3.4 15.05 2 16.45 -0.05 16.45 -2.1 16.45 -3.5 15.05 -4.9 13.65 -4.9 11.6
L -4.9 5 -11.5 5
Q -13.6 5 -15 3.5 -16.45 2.1 -16.45 0.05 -16.45 -2 -15 -3.45 -13.6 -4.85 -11.5 -4.85
L -4.9 -4.85 -4.9 -11.45
Q -4.9 -13.5 -3.5 -14.9 -2.1 -16.4 -0.05 -16.4 2 -16.4 3.4 -14.9 4.8 -13.5 4.8 -11.45
L 4.8 -4.85 11.4 -4.85
M 18.6 -37.65
L 18.6 -28.25
Q 18.6 -26.6 19.75 -25.45 21 -24.3 22.55 -24.3
L 31.95 -24.3 31.95 -24.4 18.6 -37.65 Z"/>
</g>
</defs>

<g transform="matrix( 1, 0, 0, 1, 0,0) ">
<g transform="matrix( 1, 0, 0, 1, 0,0) ">
<use xlink:href="#Symbol_9_0_Layer0_0_FILL"/>
</g>

<g transform="matrix( 1, 0, 0, 1, 65.35,63.45) ">
<g transform="matrix( 1, 0, 0, 1, 0,0) ">
<use xlink:href="#Symbol_6_0_Layer0_0_FILL"/>
</g>
</g>
</g>
</svg>
