<?xml version="1.0" encoding="UTF-8" standalone="no"?>
<svg
   xmlns:dc="http://purl.org/dc/elements/1.1/"
   xmlns:cc="http://creativecommons.org/ns#"
   xmlns:rdf="http://www.w3.org/1999/02/22-rdf-syntax-ns#"
   xmlns:svg="http://www.w3.org/2000/svg"
   xmlns="http://www.w3.org/2000/svg"
   xmlns:xlink="http://www.w3.org/1999/xlink"
   xmlns:sodipodi="http://sodipodi.sourceforge.net/DTD/sodipodi-0.dtd"
   xmlns:inkscape="http://www.inkscape.org/namespaces/inkscape"
   version="1.1"
   preserveAspectRatio="none"
   x="0px"
   y="0px"
   width="128px"
   height="130px"
   viewBox="0 0 128 130"
   id="svg43"
   sodipodi:docname="sortAsc.svg"
   inkscape:version="0.92.3 (2405546, 2018-03-11)">
  <metadata
     id="metadata47">
    <rdf:RDF>
      <cc:Work
         rdf:about="">
        <dc:format>image/svg+xml</dc:format>
        <dc:type
           rdf:resource="http://purl.org/dc/dcmitype/StillImage" />
      </cc:Work>
    </rdf:RDF>
  </metadata>
  <sodipodi:namedview
     pagecolor="#ffffff"
     bordercolor="#666666"
     borderopacity="1"
     objecttolerance="10"
     gridtolerance="10"
     guidetolerance="10"
     inkscape:pageopacity="0"
     inkscape:pageshadow="2"
     inkscape:window-width="1366"
     inkscape:window-height="705"
     id="namedview45"
     showgrid="false"
     inkscape:zoom="1.8153846"
     inkscape:cx="64"
     inkscape:cy="65"
     inkscape:window-x="-8"
     inkscape:window-y="-8"
     inkscape:window-maximized="1"
     inkscape:current-layer="svg43" />
  <defs
     id="defs29">
    <linearGradient
       id="Gradient_1"
       gradientUnits="userSpaceOnUse"
       x1="85.85"
       y1="137.75"
       x2="40.449999999999996"
       y2="-25.150000000000006"
       spreadMethod="pad">
      <stop
         offset="0%"
         stop-color="#00C37E"
         id="stop2" />
      <stop
         offset="1.1764705882352942%"
         stop-color="#08C57A"
         id="stop4" />
      <stop
         offset="11.372549019607844%"
         stop-color="#3BCF5E"
         id="stop6" />
      <stop
         offset="21.568627450980394%"
         stop-color="#68D845"
         id="stop8" />
      <stop
         offset="32.15686274509804%"
         stop-color="#8FE02F"
         id="stop10" />
      <stop
         offset="43.13725490196079%"
         stop-color="#AEE61E"
         id="stop12" />
      <stop
         offset="54.509803921568626%"
         stop-color="#C6EB11"
         id="stop14" />
      <stop
         offset="66.66666666666667%"
         stop-color="#D8EE07"
         id="stop16" />
      <stop
         offset="79.6078431372549%"
         stop-color="#E2F002"
         id="stop18" />
      <stop
         offset="95.29411764705883%"
         stop-color="#E5F100"
         id="stop20" />
    </linearGradient>
    <g
       id="Symbol_14_0_Layer0_0_FILL">
      <path
         fill="url(#Gradient_1)"
         stroke="none"
         d=" M 116.5 11.25 Q 103.5 -1 83.25 0.1 64.8 1.05 45.3 12.45 26.35 23.55 13.9 40.15 0.7 57.75 0.05 75.15 -0.6 89.25 6.65 101.9 13.85 114.2 26.35 121.8 39.35 129.75 54.55 130.35 70.85 131.1 86.5 123 98.9 116.55 109.3 102.4 119.4 88.65 124.5 71.9 129.8 54.5 128.2 39.05 126.35 22.1 116.5 11.25 Z"
         id="path23" />
    </g>
    <g
       id="Symbol_2_0_Layer0_0_FILL">
      <path
         fill="#BC5913"
         stroke="none"
         d=" M -29.05 3.25 L -29.05 22.2 32.35 22.2 32.35 3.25 -29.05 3.25 M -29.05 27.45 L -29.05 46.3 54.45 46.3 54.45 27.45 43.5 27.45 43.5 27.3 9.25 27.3 9.25 27.45 -29.05 27.45 M -40.35 -46.7 L -48.8 -46.7 -48.8 27.8 -54.25 27.8 -54.4 28.05 -44.6 46.65 -34.8 27.95 -34.9 27.8 -40.35 27.8 -40.35 -46.7 M 2.15 -26 L 2.15 -44.95 -29.05 -44.95 -29.05 -26 2.15 -26 M 13.25 -1.9 L 13.25 -20.85 -29 -20.85 -29 -1.9 13.25 -1.9 Z"
         id="path26" />
    </g>
  </defs>
  <g
     id="g33">
    <use
       height="100%"
       width="100%"
       y="0"
       x="0"
       id="use31"
       xlink:href="#Symbol_14_0_Layer0_0_FILL" />
  </g>
  <g
     id="g39"
     transform="matrix(-0.70674996,0.00556194,0.00556194,0.70674996,62.685477,65.535199)">
    <g
       id="g37">
      <use
         height="100%"
         width="100%"
         y="0"
         x="0"
         id="use35"
         xlink:href="#Symbol_2_0_Layer0_0_FILL" />
    </g>
  </g>
</svg>
