
<svg xmlns="http://www.w3.org/2000/svg" version="1.1" xmlns:xlink="http://www.w3.org/1999/xlink" preserveAspectRatio="none" x="0px" y="0px" width="131px" height="123px" viewBox="0 0 131 123">
<defs>
<linearGradient id="Gradient_1" gradientUnits="userSpaceOnUse" x1="98.5875" y1="159.4" x2="23.512499999999996" y2="-72.4" spreadMethod="pad">
<stop  offset="0%" stop-color="#FF0C95"/>

<stop  offset="5.098039215686274%" stop-color="#FD1D8A"/>

<stop  offset="24.313725490196077%" stop-color="#F65D60"/>

<stop  offset="42.745098039215684%" stop-color="#F0923E"/>

<stop  offset="59.6078431372549%" stop-color="#EBBB23"/>

<stop  offset="74.90196078431373%" stop-color="#E8D910"/>

<stop  offset="88.23529411764706%" stop-color="#E6EB04"/>

<stop  offset="97.6470588235294%" stop-color="#E5F100"/>
</linearGradient>

<g id="Symbol_12_0_Layer0_0_FILL">
<path fill="url(#Gradient_1)" stroke="none" d="
M 121.55 87.9
Q 128.45 74.2 130.55 59.5 134.7 29.85 114.95 12.25 93.35 -6.95 56.25 3.9 41.35 8.25 27 20.05 11.65 32.7 4.65 47.7 -3.3 64.9 2.4 80.55 9.05 98.65 33.35 112.25 73.6 134.7 102.3 112.05 113.85 103 121.55 87.9 Z"/>
</g>

<g id="Symbol_1_0_Layer0_0_FILL">
<path fill="#FFFFFF" stroke="none" d="
M 23.65 -56.1
Q 12.35 -60.95 0 -60.95 -11.7 -60.95 -22.6 -56.55 -33.45 -52.15 -42 -44.15
L -52.3 -54.35
Q -54.7 -56.85 -57.8 -55.45 -60.95 -54.1 -60.95 -50.8
L -60.95 -15.25
Q -60.95 -13.2 -59.45 -11.65 -57.95 -10.15 -55.9 -10.15
L -20.3 -10.15
Q -17 -10.15 -15.65 -13.35 -14.3 -16.45 -16.75 -18.8
L -27.6 -29.75
Q -22.05 -35 -14.95 -37.8 -7.8 -40.65 0 -40.65 8.25 -40.65 15.75 -37.4 23.25 -34.2 28.75 -28.75 34.2 -23.25 37.4 -15.75 40.65 -8.25 40.65 0 40.65 8.25 37.4 15.75 34.2 23.25 28.75 28.75 23.25 34.2 15.75 37.4 8.3 40.65 0 40.65 -9.45 40.65 -17.85 36.5 -26.25 32.4 -32.05 24.85 -32.65 24.05 -33.9 23.9 -35.1 23.9 -35.85 24.6
L -46.75 35.55
Q -47.4 36.2 -47.45 37.2 -47.45 38.15 -46.9 39 -38.25 49.45 -25.95 55.2 -13.65 60.95 0 60.95 12.35 60.95 23.65 56.1 34.9 51.3 43.1 43.1 51.25 34.95 56.1 23.65 60.95 12.35 60.95 0 60.95 -12.4 56.1 -23.65 51.3 -34.9 43.1 -43.1 34.9 -51.3 23.65 -56.1 Z"/>
</g>
</defs>

<g transform="matrix( 1, 0, 0, 1, 0,0) ">
<g transform="matrix( 1, 0, 0, 1, 0,0) ">
<use xlink:href="#Symbol_12_0_Layer0_0_FILL"/>
</g>

<g transform="matrix( 0.5606536865234375, 0, 0, 0.5606536865234375, 71.4,64.3) ">
<g transform="matrix( 1, 0, 0, 1, 0,0) ">
<use xlink:href="#Symbol_1_0_Layer0_0_FILL"/>
</g>
</g>
</g>
</svg>
